<svg id="Graphic_Elements" data-name="Graphic Elements" xmlns="http://www.w3.org/2000/svg" viewBox="0 0 1200 1200"><defs><style>.cls-1{fill:none;}</style></defs><circle class="cls-1" cx="599.96" cy="442.43" r="214.13" transform="translate(-137.12 553.82) rotate(-45)"/><path class="cls-1" d="M806.71,643.05a22.06,22.06,0,0,0-26.65,3.77,251.75,251.75,0,0,1-360.21,0,21.93,21.93,0,0,0-26.57-3.77A417.7,417.7,0,0,0,196.52,905.49a33.78,33.78,0,0,0,2.63,3.51l2.63,3.42c1.05,1.4,2.19,2.72,3.25,4.12,1.75,2.19,3.5,4.3,5.34,6.49q3.69,4.47,7.63,8.94t8.16,9.21c2.19,2.45,4.47,4.91,6.66,7.28a510.58,510.58,0,0,0,121.71,94.35,4.5,4.5,0,0,1,1,.43c4.47,2.46,8.94,4.91,13.5,7.28,4.92,2.55,9.83,4.91,14.82,7.28,4.21,2,8.42,4,12.72,5.79a509.93,509.93,0,0,0,337.41,24.72c4.56-1.22,9.12-2.54,13.59-3.94q5.13-1.45,10-3.16c9.91-3.15,19.73-6.75,29.29-10.61,3.33-1.23,6.67-2.63,10.08-4.12,3.77-1.49,7.55-3.16,11.23-4.91,4.91-2.19,9.73-4.47,14.55-6.84,2.55-1.23,5.09-2.45,7.63-3.86a514.73,514.73,0,0,0,62.61-38c3.33-2.37,6.58-4.74,9.82-7.19s6.49-4.91,9.64-7.37c6.14-4.82,12.11-9.73,18-14.82,6.4-5.52,12.63-11.22,18.85-17,3-2.89,6-5.87,8.86-8.77,1.49-1.49,2.89-3,4.29-4.38a1.69,1.69,0,0,0,.44-.35c1.14-1.23,2.37-2.54,3.6-3.68a3.49,3.49,0,0,1,.79-.88c2.45-2.72,5-5.35,7.45-8.07q11.58-12.75,22.27-26.3c2.28-2.72,4.48-5.61,6.58-8.42A418.09,418.09,0,0,0,806.71,643.05Z"/><path d="M1034.78,263.2a20.38,20.38,0,0,0-3.07-3.15A552.32,552.32,0,0,0,845.38,108.27a19,19,0,0,0-3.59-2.28A544.38,544.38,0,0,0,600,50C296.74,50,50,296.79,50,600A548,548,0,0,0,193.1,969.94a20.68,20.68,0,0,0,3.86,3.51l.09.09a547.21,547.21,0,0,0,133.8,105.66,18.72,18.72,0,0,0,3.42,2.45,544,544,0,0,0,155,56.91c4.47,1,8.94,1.84,13.5,2.63,5.79,1,11.66,2,17.54,2.8q18.54,2.9,37.35,4.21c14,1.23,28.15,1.76,42.27,1.76,147,0,285.15-57.26,389.14-161.26,6.49-6.57,12.19-12.53,17.45-18.41.09-.09.09-.09.09-.17A548.38,548.38,0,0,0,1150,600C1150,476.8,1110.1,360.27,1034.78,263.2ZM600,228.31c118.11,0,214.12,96,214.12,214.12S718.07,656.56,600,656.56,385.83,560.45,385.83,442.43,481.93,228.31,600,228.31ZM996.9,914q-10.65,13.54-22.27,26.3c-2.45,2.72-5,5.35-7.45,8.07a3.49,3.49,0,0,0-.79.88c-1.23,1.14-2.46,2.45-3.6,3.68a1.69,1.69,0,0,1-.44.35c-1.4,1.4-2.8,2.89-4.29,4.38-2.89,2.9-5.88,5.88-8.86,8.77-6.22,5.79-12.45,11.49-18.85,17-5.87,5.09-11.84,10-18,14.82-3.15,2.46-6.4,4.91-9.64,7.37s-6.49,4.82-9.82,7.19a514.73,514.73,0,0,1-62.61,38c-2.54,1.41-5.08,2.63-7.63,3.86-4.82,2.37-9.64,4.65-14.55,6.84-3.68,1.75-7.46,3.42-11.23,4.91-3.41,1.49-6.75,2.89-10.08,4.12-9.56,3.86-19.38,7.46-29.29,10.61q-4.86,1.71-10,3.16c-4.47,1.4-9,2.72-13.59,3.94a509.93,509.93,0,0,1-337.41-24.72c-4.3-1.84-8.51-3.77-12.72-5.79-5-2.37-9.9-4.73-14.82-7.28-4.56-2.37-9-4.82-13.5-7.28a4.5,4.5,0,0,0-1-.43,510.58,510.58,0,0,1-121.71-94.35c-2.19-2.37-4.47-4.83-6.66-7.28q-4.22-4.6-8.16-9.21T210.37,923c-1.84-2.19-3.59-4.3-5.34-6.49-1.06-1.4-2.2-2.72-3.25-4.12L199.15,909a33.78,33.78,0,0,1-2.63-3.51A417.7,417.7,0,0,1,393.28,643.05a21.93,21.93,0,0,1,26.57,3.77,251.75,251.75,0,0,0,360.21,0,22.06,22.06,0,0,1,26.65-3.77,418.09,418.09,0,0,1,196.77,262.53C1001.38,908.39,999.18,911.28,996.9,914Z"/></svg>